<?xml version="1.0" encoding="utf-8"?>
<svg xmlns="http://www.w3.org/2000/svg" width="1200" height="1200" viewBox="0 0 1200 1200" role="img" aria-label="Bright-Star Kernel - Light Mode">
  <defs>
    <!-- softer red gradient tuned for light backgrounds -->
    <linearGradient id="gRedLight" x1="0" x2="1" y1="0" y2="1">
      <stop offset="0" stop-color="#FF6B6B"/>
      <stop offset="0.45" stop-color="#FF3B3B"/>
      <stop offset="1" stop-color="#D9302A"/>
    </linearGradient>

    <!-- subtle outer shadow for chip (gives slight depth on white) -->
    <filter id="chip-shadow" x="-40%" y="-40%" width="180%" height="180%">
      <feOffset dx="0" dy="8" result="off"/>
      <feGaussianBlur in="off" stdDeviation="18" result="blur"/>
      <feColorMatrix in="blur" type="matrix" values="0 0 0 0 0.0  0 0 0 0 0.0  0 0 0 0 0.0  0 0 0 0.18" result="shadow"/>
      <feMerge><feMergeNode in="shadow"/><feMergeNode in="SourceGraphic"/></feMerge>
    </filter>

    <!-- soft inner highlight (makes chip feel raised) -->
    <filter id="inner-highlight" x="-20%" y="-20%" width="140%" height="140%">
      <feGaussianBlur stdDeviation="8" result="h"/>
      <feComposite in="h" in2="SourceGraphic" operator="in" />
      <feMerge><feMergeNode in="SourceGraphic"/><feMergeNode in="h"/></feMerge>
    </filter>

    <!-- subtle star drop shadow -->
    <filter id="star-shadow" x="-60%" y="-60%" width="220%" height="220%">
      <feGaussianBlur stdDeviation="12" result="s"/>
      <feOffset dx="0" dy="6" in="s" result="s2"/>
      <feMerge><feMergeNode in="s2"/><feMergeNode in="SourceGraphic"/></feMerge>
    </filter>

    <!-- light vignette to keep focus on center -->
    <radialGradient id="vLight" cx="50%" cy="45%" r="70%">
      <stop offset="0" stop-color="rgba(255,255,255,0)"/>
      <stop offset="1" stop-color="rgba(240,240,242,0.95)"/>
    </radialGradient>

    <!-- small text-softening blur -->
    <filter id="text-soft" x="-20%" y="-20%" width="140%" height="140%">
      <feGaussianBlur stdDeviation="1.2" result="t"/>
      <feMerge><feMergeNode in="t"/><feMergeNode in="SourceGraphic"/></feMerge>
    </filter>
  </defs>

  <!-- background: pure white with very subtle airy vignette -->
  <rect width="1200" height="1200" fill="#ffffff"/>
  <rect width="1200" height="1200" fill="url(#vLight)" opacity="0.85"/>

  <!-- centered composition -->
  <g transform="translate(300,200)">
    <!-- chip soft shadow -->
    <g filter="url(#chip-shadow)">
      <rect x="0" y="0" width="600" height="600" rx="72" fill="#ffffff"/>
    </g>

    <!-- chip outer stroke (gradient) -->
    <rect x="0" y="0" width="600" height="600" rx="72" fill="none" stroke="url(#gRedLight)" stroke-width="10"/>

    <!-- chip inner fill (slightly off-white to read against pure white bg) -->
    <rect x="10" y="10" width="580" height="580" rx="60" fill="#fbfbfc" filter="url(#inner-highlight)"/>

    <!-- pins (subtle, lighter red) -->
    <g fill="url(#gRedLight)" opacity="0.9">
      <!-- top pins -->
      <rect x="90" y="-22" width="30" height="56" rx="10"/>
      <rect x="180" y="-22" width="30" height="56" rx="10"/>
      <rect x="270" y="-22" width="30" height="56" rx="10"/>
      <rect x="360" y="-22" width="30" height="56" rx="10"/>
      <!-- bottom pins -->
      <rect x="90" y="566" width="30" height="56" rx="10"/>
      <rect x="180" y="566" width="30" height="56" rx="10"/>
      <rect x="270" y="566" width="30" height="56" rx="10"/>
      <rect x="360" y="566" width="30" height="56" rx="10"/>
      <!-- left pins -->
      <rect x="-22" y="120" width="56" height="30" rx="10"/>
      <rect x="-22" y="210" width="56" height="30" rx="10"/>
      <rect x="-22" y="300" width="56" height="30" rx="10"/>
      <!-- right pins -->
      <rect x="566" y="120" width="56" height="30" rx="10"/>
      <rect x="566" y="210" width="56" height="30" rx="10"/>
      <rect x="566" y="300" width="56" height="30" rx="10"/>
    </g>

    <!-- star group (centered) -->
    <g transform="translate(300,300)" filter="url(#star-shadow)">
      <!-- halo (very faint pale red for light bg) -->
      <path d="M0,-140 L46,-50 L140,-50 L68,12 L96,120  L0,68 L-96,120 L-68,12 L-140,-50 L-46,-50 Z"
            fill="url(#gRedLight)" opacity="0.08"/>
      <!-- main star (solid, slightly glossy) -->
      <path d="M0,-130 L40,-46 L130,-46 L60,10 L86,100 L0,60 L-86,100 L-60,10 L-130,-46 L-40,-46 Z"
            fill="url(#gRedLight)" stroke="#b02a2a" stroke-width="4" stroke-linejoin="round"/>
      <!-- inner highlight (subtle white sheen) -->
      <path d="M0,-110 L32,-46 L100,-46 L50,8 L70,82 L0,52 L-70,82 L-50,8 L-100,-46 L-32,-46 Z"
            fill="#ffbcbc" opacity="0.45"/>
    </g>

    <!-- subtle inset border around star area -->
    <rect x="140" y="140" width="320" height="320" rx="48" fill="none" stroke="#eee" stroke-width="2"/>
  </g>

  <!-- wordmark: dark text for light mode -->
  <g transform="translate(0,900)">
    <text x="600" y="60" font-family="Segoe UI, Roboto, Arial, Helvetica, sans-serif"
          font-size="86" font-weight="800" text-anchor="middle" fill="#0f1724" letter-spacing="6"
          filter="url(#text-soft)">BRIGHT-STAR</text>

    <text x="600" y="120" font-family="SFMono-Regular, Menlo, Monaco, monospace"
          font-size="36" font-weight="500" text-anchor="middle" fill="#24303b" letter-spacing="6">KERNEL FOR 13R</text>
  </g>
</svg>
